<svg xmlns="http://www.w3.org/2000/svg" height="30" width="104" viewBox="0 0 104 30"><path fill-rule="nonzero" fill="#ABB6C5" d="M10.4 29.5A81 81 0 0 1 0 29c0-.5 40.3-.9 72.5-.6 16.7.1 30.5.3 30.6.4s.1.3 0 .4c-.2.2-76.7.5-92.7.3zm-1.3-6.6l.7-1c.4-.4 2-4 3.5-7.9 3.1-8.1 4-9.7 5.9-11.3l1.3-1.2-3.4.2c-4 .3-6.3 1-7.7 2.4-1.1 1-1.8 2.9-1.5 4.1.2 1-.5.9-1.6-.2-1.3-1.4-1-3.2 1-5C9.5.7 11.2.4 22 .2l9.6-.2-1 .7c-.7.5-1.8.7-4.4.8-3.2.1-3.6.2-4.5 1.1-1 1-3 5.6-5.7 12.9-1.5 4.1-2.7 6.2-4 6.9-.9.4-3 .8-3 .5zM40 23l.6-1.3 1-1.5.9-2.4.7-1.9-1.6 1.2c-2.8 2.1-5.8 2.6-7.3 1.1s-1-5 1.5-8.3c2.8-3.8 7.8-5.2 7.8-2.2 0 1.4-2 3.8-4.7 5.4-2.2 1.4-2.9 2.6-2.2 3.9.5.8 1.3.8 3 0a12 12 0 0 0 5.5-6.4l1-2.6-.9-.3c-.7-.1-.7-.2.4-.6.6-.3 1.4-1 1.7-1.6C49.4 2 52 .4 56.2.2c2.8-.1 3-.1 4 .8.4.5.8 1.1.8 1.3 0 .6-2 2.6-2.5 2.6-.4 0-.4-.1 0-.5.2-.2.4-.9.4-1.4C58.9.8 55.5.2 53 2a12 12 0 0 0-3.2 4.4h3.6c3.9-.2 4.6.2 2.6 1.2-3 1.5-5.7 9.7-3.4 10 1.7.2 4.8-5.3 4.8-8.7 0-1 .1-1 3.3-1.8 4-.9 4.5-.8 4.2 1a8 8 0 0 1-.4 2c-.2.4.5-.1 1.4-1.1 2-2.1 3.4-2.9 4.7-2.5 1.8.4 1.7 1.4-1.3 8.1C68.4 16.4 68 18 68 19c0 1.8-.4 2-1.7.6-1.3-1.2-1-2.9.9-7.3a28 28 0 0 0 1.5-3.7c0-1.7-3.7 2.6-6 6.9-1.7 3.2-2 3.4-3 3.6-.7 0-1.2-.1-1.2-.2l1.8-5c2.2-5.5 2.3-6.2.8-5.9-1.4.4-1.5.5-1.5 1.4 0 1-1.9 5-3.1 6.6-2 2.6-5.2 3.8-7 2.6-1.8-1.3-.5-6.8 2.4-9.6l1.4-1.4-2 .1-2.2.2-1.5 4.2a30 30 0 0 1-4.8 10.1c-1 .6-2.8 1.1-2.8.8zm0-12.2c1.4-1.4 2-3 1.2-3.2-1-.4-3.1 2.2-4 4.9l-.2.9 1-.8c.6-.4 1.5-1.2 2-1.8zm-11 9c-.8-.6-1-1.1-1-2.2v-1.5l-1.3 1c-2.9 2.2-5.4 2.6-7 1.1-.8-.9-.9-1.1-.7-2.8.6-4.4 4-8.4 7.8-9.2.9-.2 1.3-.1 1.9.5.6.6.6.9.3 1.8-.4 1.3-3.3 4.1-5.3 5.1-1.4.7-1.5.9-1.5 2.2 0 .8.1 1.5.3 1.7.9.5 2.8-.4 4.6-2.2 1.5-1.5 2.3-2.9 4.3-7.5 2.4-5.3 2.7-5.6 3.8-5.9.7-.2 1.3-.3 1.5-.2.2 0-.9 2.8-2.3 6.2-3.2 7.2-4 9.4-4 11.3 0 1.6-.1 1.7-1.5.6zM25 11.3c1.7-1.6 2.4-3 1.8-3.6-.3-.3-.6-.3-1 0-1.4.9-4.1 6-2.8 5.3l2-1.7zm68.1 8.5c-.8-.7-1-1-.8-2.2 0-.8 0-1.4-.2-1.4-.1 0-.3.2-.3.4 0 .7-3 2.5-4.1 2.5-1.3 0-2.4-.9-2.4-2 0-.6 0-.6-.8.1-2.3 2.1-5.2 2.5-6.7 1l-.9-.9-1.3.9c-1.5 1.1-3.4 1.2-4.3.3-.9-.9-.5-2.4 1.7-7.2 1.8-4.2 1.8-4.2 3.3-4.5.9-.2 1.6-.3 1.7-.2 0 0-.8 2.1-2 4.6-2 4.7-2.4 6.1-1.4 6.1.9 0 2.7-1.5 2.7-2.2a14 14 0 0 1 2.7-5.7A8.3 8.3 0 0 1 86 6.3c2.4 0 3.1 1.6 1.3 2.9-1.1 1-1.7 1-1.4.2.9-2-.4-2.6-2-1-3.1 3-4.6 9.8-2 9.1a8.5 8.5 0 0 0 4.6-4.3c2.5-4.7 5.1-6.6 9.1-6.6 1.4-.1 2.6 0 2.7.2.2.1-.1 1.2-.7 2.4a34.8 34.8 0 0 0-3.2 11.4l-1.2-.8zM91 16c1.2-1.2 4.8-8.1 4.4-8.5-.4-.4-2.2.4-3.3 1.5-1.4 1.6-3 4.4-3.4 6.4-.5 2.4.3 2.6 2.3.6zM77.9 4.3c-.7-.3-.6-1.8 0-2.3.9-.7 1.9-.3 1.9.7 0 .9-1.2 1.8-2 1.6z"/></svg>