<svg xmlns="http://www.w3.org/2000/svg" height="26" width="101" viewBox="0 0 101 26"><path fill="#ABB6C5" d="M9.2 13.4H5.7l1.9-6 1.6 6zM4 20.1l1.1-4h4.7l1 4h4.3L11 4.9c-.3-.9-.8-1.3-1.7-1.3H3V5h.5c.7 0 1 .3 1 .8 0 .3 0 .6-.3 1.3L0 20.1h4zm16 0V4.9c0-.8-.4-1.3-1.1-1.3H15V5h.3c.6 0 .9.3.9 1v14.1H20zm6.6 0V4.9c0-.8-.5-1.3-1.2-1.3h-3.8V5h.3c.6 0 .9.3.9 1v14.1h3.8zm6.7-15c0-1.1-.8-1.8-2.2-1.8-1.4 0-2.2.7-2.2 1.8s.8 1.8 2.2 1.8c1.4 0 2.2-.7 2.2-1.8zm-.1 15V9c0-.8-.5-1.3-1.2-1.3h-3.7v1.5h.2c.6 0 .9.2.9.9v10h3.8zm8.4-5.9v2.4c-.7.7-1.4 1.1-2.1 1.1-.7 0-1-.4-1-1.3s.3-1.3 1-1.6l2-.6zm-5.2-2.9c1.3-.6 2.7-1 3.8-1 1 0 1.4.4 1.4 1.5v.3a25.2 25.2 0 0 0-4.4 1c-1.5.6-2.3 1.8-2.3 3.7 0 2.3 1 3.5 3.1 3.5.8 0 1.4-.2 2-.4l1.7-1.1v.2c0 .7.4 1.1 1.1 1.1h3.5v-1.3h-.2c-.6 0-.8-.3-.8-1.1v-5.9c0-3.1-1.1-4.2-4.2-4.2l-3 .3a8 8 0 0 0-2.5 1l.8 2.4zM52 20.1v-8.3c.6-.8 1.3-1.1 2-1.1.8 0 1 .3 1 1.6v7.8h3.8v-8.4c0-2-.1-2.6-.7-3.2-.5-.6-1.3-.9-2.3-.9-1.5 0-2.6.5-4 1.8v-.5c0-.8-.4-1.2-1.1-1.2h-3.7v1.5h.3c.6 0 .9.2.9.9v10h3.8zM70 17.5v2.6h-9.6v-2.5l5.1-7.3h-2.7c-.6 0-.9.2-.9.8v.2h-1.4V9.1c0-.9.4-1.4 1.3-1.4h8v2.6l-5.1 7.2H70zm30.6-4.8c0 7.3-5.3 12.7-12.4 12.7S75.7 20 75.7 12.7 81 0 88 0c7.2 0 12.5 5.4 12.5 12.7zm-2 0C98.5 6.6 94 2 88.1 2c-6 0-10.4 4.5-10.4 10.7s4.4 10.7 10.4 10.7 10.3-4.5 10.3-10.7zm-7 7.1V7.4h2c1.1 0 1.5.4 1.5 1.5v10.9h-3.6zm-1.6 0h-3.7V7c0-1-.1-1.1-.8-1.1h-.2V4.3h3.2c1 0 1.5.4 1.5 1.5v14zm-5.2 0h-3.6V8.9c0-1.1.4-1.5 1.4-1.5h2.2v12.4z" fill-rule="evenodd"/></svg>