<svg xmlns="http://www.w3.org/2000/svg" height="25" width="112" viewBox="0 0 112 25"><path fill="#ABB6C5" d="M9.6.2h11.9c1 0 2 .5 2.5 1.3.4.6.7 1.3.7 2.1v11.9c-.8 0-1.6-.2-2.2-.7a3.2 3.2 0 0 1-1.4-2.5v-7c0-.7-.3-1.3-.9-1.6l-.8-.1h-5.9l-1.1-.1A3.4 3.4 0 0 1 9.7.2zm101.7 11.6a19 19 0 0 1-.3 8.4c-.4 1.2-1.1 2.3-2 3a6.4 6.4 0 0 1-4.4 1.3c-1.4.1-2.8-.1-4-.8-.9-.6-1.6-1.4-2.1-2.4-.6-1-.9-2.1-1-3.2l-.2-2.5c0-1.4.1-2.8.5-4.1.3-1.2.9-2.4 1.8-3.3.9-1 2.1-1.5 3.4-1.6 1.3-.2 2.5-.2 3.8.1 1 .3 2.1.9 3 1.8.7 1 1.2 2.1 1.5 3.3zm-3.5 6.8c.2-1.3.2-2.6.2-3.9v-.1l-.2-2.3c-.1-.6-.3-1.2-.6-1.6-.4-.6-1.1-1-1.8-1.1-1-.2-1.9-.2-2.7.3-.6.2-1 .8-1.2 1.4-.3.7-.4 1.4-.4 2.2a28.1 28.1 0 0 0 .3 6.1c.2.5.5 1 1 1.3.3.3.7.4 1 .5.9.2 1.7.2 2.4-.1a2 2 0 0 0 1.3-.9c.4-.5.6-1.2.7-1.8zM1.4 6.3h15.4c.6 0 1.1.5 1.1 1.1v14.9c0 .6-.5 1.1-1 1.1H1.3c-.6 0-1.1-.5-1.1-1.1V7.4c0-.6.5-1.1 1-1.1zm38 .6c.5 0 1 0 1.4.2.2.1.4.3.4.5v1l-.1.9c-.1.2-.4.3-.6.4l-2-.1-2.6-.1c-.4 0-1 0-1.2.4-.3.4-.2.9-.2 1.4v1c.2.3.5.4.8.6l3.9 1.7c.7.4 1.4.7 1.8 1.4.5.7.5 1.5.5 2.3 0 1.1 0 2.2-.2 3.3-.2.8-.8 1.5-1.6 1.8-1.2.6-2.5.6-3.8.7l-4-.3c-.3 0-.7-.1-1-.3V23v-1.1c0-.3 0-.6.3-.7.3-.2.7-.1 1-.1l3.1.1c.5.1 1 .1 1.6 0 .3 0 .7 0 1-.4.2-.3.2-.8.2-1.2l-.1-1.5c0-.2-.2-.4-.4-.5l-1-.5-3.3-1.4c-.6-.3-1.3-.7-1.7-1.3-.5-.7-.5-1.6-.6-2.4 0-1.2 0-2.4.5-3.4C32 7.7 33 7.3 34 7l1.4-.2c1.4-.1 2.8 0 4.2.1zM85.6 23c.1.2 0 .6-.1.8-.2.2-.5.2-.8.2h-1.4c-.3 0-.7 0-.9-.2l-.4-.7a92 92 0 0 1-1-3.2l-5.6.1-.7 2.2-.6 1.4c-.2.4-.7.4-1.1.4h-1.7l-.5-.4.2-1L76 7.9c.1-.3.3-.7.7-.9.4-.2 1-.1 1.4-.1.5 0 1-.1 1.4.1.3.2.5.6.6 1l5.4 15zm-9.3-5.7h3.7L78 11.6l-1.8 5.7zm-33-10.2c.2-.2.6-.2 1-.1h10.4c.3 0 .7 0 .9.3.2.4.1.8.1 1.2 0 .4 0 .8-.2 1.1-.3.3-.7.3-1 .3H51V23c0 .3-.2.7-.5.9-.4.2-.8.1-1.3.1-.4 0-.9.1-1.3-.1-.3-.1-.5-.5-.5-.9V9.9h-3.6c-.3 0-.6 0-.8-.3-.3-.2-.3-.6-.3-.9v-.9c0-.3.2-.6.4-.7zM69.4 23c0 .3 0 .6-.2.8-.2.2-.5.2-.8.2h-1.9c-.4 0-.9-.3-1.1-.6l-4.3-5.6h-.5v5.5c0 .2-.2.5-.4.6l-1 .1h-1c-.3 0-.6 0-.8-.2-.2-.1-.2-.3-.3-.4V8.1c0-.3 0-.6.2-.9.2-.2.5-.2.8-.2h5.6c1 0 2 0 2.8.5.6.4 1.2 1 1.5 1.7.5 1.3.6 2.8.5 4.2 0 .8-.1 1.7-.5 2.4-.3.6-.7 1-1.2 1.3-.4.3-1 .5-1.5.6l3.3 4.2.8 1.1zM65 13.2l-.1-2.4c-.1-.3-.3-.6-.6-.7-.4-.2-.8-.2-1.2-.2h-2.5v5h2.8c.4 0 1-.1 1.3-.4.3-.3.3-.8.3-1.3zm19-5.9c.2-.2.5-.3.7-.3h11c.4 0 .7 0 1 .3v2.2c-.2.3-.6.4-1 .4h-3.6V23c0 .3-.1.7-.4.9-.4.2-.9.1-1.3.1-.5 0-1 .1-1.4-.1-.3-.2-.4-.6-.4-.9V9.9H85c-.3 0-.7-.1-.9-.4-.2-.3 0-.7-.1-1.1l.1-1.1z" fill-rule="evenodd"/></svg>