<svg xmlns="http://www.w3.org/2000/svg" height="24" width="106" viewBox="0 0 106 24"><path fill-rule="nonzero" fill="#ABB6C5" d="M10.7.9c3.5 0 4.8.8 6 1.5v5.9c-1.3-2.1-3.1-3.2-5.2-3.2-3.9 0-6 2.7-6 7.3s2.1 7.4 5.8 7.4c2.2 0 4.2-1 5.5-3.2v5.9c0 .1-1.3 1.3-5.8 1.3-6.5 0-10.5-4.5-10.5-11C.5 6 4.1.9 10.7.9c3.5 0-6.6 0 0 0zm54 17.9h3.7V1.4h-3.7v17.4zm-42-13.2c-4.1 0-6.4 2.8-6.4 6.8 0 4.6 2.6 6.8 7 6.8 4.2 0 6.6-2.5 6.6-7 0-4.3-2.4-6.6-7.2-6.6zm34.8 0c-3.1 0-6.2 2.8-6.2 6.8 0 4.1 3 6.9 6.7 6.9s5.6-2.8 6.1-4.1h-4c-.9 1-1.6 1.2-2.2 1.2-1.3 0-2.5-1-2.8-2.9h9v-.7c0-4.4-2.2-7.2-6.6-7.2zm16.8.1c-3 0-5 1.6-5 4.3 0 2.4 1.9 3.3 5.7 4 2.9.4 2.1 2.8-.5 2.5-1.1-.1-1.8-.4-2.1-1.4H69v.5c0 1.9 2.6 3.6 5.8 3.6.6 0 2-.1 3.3-.7 1.3-.5 2.4-1.5 2.4-3.9 0-2-1.2-3.4-5.6-3.9-3.4-.4-2.2-2.5-.2-2.4.7 0 1.7.4 2 1.3h3.4v-.2c0-2.1-2.2-3.7-5.8-3.7zm-37 .2c-1.6.3-2.4.7-3.2 2.3v-2h-3.5v12.6h3.7l.2-6.5c0-.5 0-1 .2-1.4.4-1.1 1.6-2 4-1.8-.2-.3 0-.6-.8-2.4-.3-.5-.4-.8-.7-.8zm9-.2c-1.6 0-3.3 1.2-3.6 1.8V6.2h-3.5v12.6h3.5v-7.7c0-1.1 1-2.2 2.4-2.2 1.1 0 2 .9 2 2.3v7.6h3.5v-8.5c0-3-1.7-4.6-4.4-4.6zM58 8.4c1.1 0 2.4 1.1 2.4 2.4h-5.2c.1-1.8 1.5-2.4 2.8-2.4zM23 8.5c2 0 3 1.1 3 4.1 0 2.4-1 3.6-2.8 3.6-2.1 0-3.3-1-3.3-3.9 0-2.3.8-3.8 3.1-3.8zm-5 14.5h87.6v-3H18v3zM86.8 5.6c-3.1 0-6.2 2.8-6.2 6.8 0 4.1 3 6.9 6.7 6.9s5.6-2.8 6.2-4.1h-4c-1 1-1.7 1.2-2.3 1.2-1.3 0-2.5-1-2.9-2.9h9.2v-.7c0-4.4-2.3-7.2-6.7-7.2zm.5 2.8c1.2 0 2.3 1.1 2.3 2.4h-5.1c0-1.8 1.5-2.4 2.8-2.4zm13.8-2.7c-1.5 0-3.2 1.2-3.5 1.8l-.1-1.3H94v12.6h3.6v-7.7c0-1.1 1-2.2 2.3-2.2 1.2 0 2.2.9 2.2 2.3v7.6h3.5v-8.5c0-3-1.8-4.6-4.5-4.6z"/></svg>