<?xml version="1.0" encoding="UTF-8" standalone="no"?>
<svg width="42" xmlns="http://www.w3.org/2000/svg" viewBox="0 0 42 46" height="46">
 <defs>
  <linearGradient id="a" x2="81.301%" y1="13.27%" x1="32.865%" y2="87.694%">
   <stop stop-color="#EEF9FF" offset="0"/>
   <stop stop-color="#C7E4F3" offset="1"/>
  </linearGradient>
 </defs>
 <g opacity=".9" fill-rule="evenodd">
  <path d="m13.331 29.23a11.975 11.975 0 0 1 -4.331 -9.23c0-6.627 5.373-12 12-12s12 5.373 12 12a11.96 11.96 0 0 1 -3.354 8.322l-0.765 4.702c-0.178 1.091-1.222 1.976-2.324 1.976h-10.392c-1.106 0-2.13-0.893-2.287-1.976l-0.547-3.794z" fill="url(#a)"/>
  <path fill-rule="nonzero" d="m15 32.99c0-0.546 0.447-0.99 0.999-0.99h11.001a1 1 0 0 1 0.999 0.99v4.02c0 0.546-0.447 0.99-0.999 0.99h-11a1 1 0 0 1 -0.999 -0.99v-4.02zm1 6.01h11c0 1.105-0.547 2-1.22 2h-8.56c-0.671 0-1.22-0.899-1.22-2zm2 3h7v2c0 1.105-0.887 2-2.006 2h-2.988a1.998 1.998 0 0 1 -2.006 -2v-2z" fill="#5977B6"/>
  <rect rx="1" transform="rotate(45 36 9)" height="6" width="2" y="6" x="35" fill="#D9EEF9"/>
  <rect width="2" fill="#D9EEF9" rx="1" x="20" height="6"/>
  <rect rx="1" transform="scale(-1 1) rotate(45 0 -5.485)" height="6" width="2" y="6" x="5" fill="#D9EEF9"/>
  <rect rx="1" transform="scale(-1 1) rotate(45 0 -59.326)" height="6" width="2" y="27" x="36" fill="#D9EEF9"/>
  <rect rx="1" transform="rotate(45 6 30)" height="6" width="2" y="27" x="5" fill="#D9EEF9"/>
  <rect rx="1" transform="rotate(90 39 19)" height="6" width="2" y="16" x="38" fill="#D9EEF9"/>
  <rect rx="1" transform="rotate(90 3 19)" height="6" width="2" y="16" x="2" fill="#D9EEF9"/>
 </g>
</svg>
